<?xml version="1.0" encoding="utf-8"?>
<!-- Generator: Adobe Illustrator 16.0.0, SVG Export Plug-In . SVG Version: 6.00 Build 0)  -->
<!DOCTYPE svg PUBLIC "-//W3C//DTD SVG 1.1//EN" "http://www.w3.org/Graphics/SVG/1.1/DTD/svg11.dtd">
<svg version="1.1" id="Layer_1" xmlns="http://www.w3.org/2000/svg" xmlns:xlink="http://www.w3.org/1999/xlink" x="0px" y="0px"
	 width="29.999px" height="24px" viewBox="-0.477 -0.514 29.999 24" enable-background="new -0.477 -0.514 29.999 24"
	 xml:space="preserve">
<g>
	<g>
		<path fill="#252628" d="M24.534,15.131l-0.761-0.708c0.724-0.799,1.125-1.837,1.125-2.924c0-1.102-0.41-2.153-1.15-2.957
			l0.756-0.712c0.921,0.999,1.428,2.299,1.428,3.668C25.928,12.85,25.434,14.141,24.534,15.131z"/>
	</g>
	<g>
		<path fill="#252628" d="M27.338,17.003l-0.746-0.72c1.225-1.295,1.898-2.994,1.898-4.783c0-1.795-0.678-3.498-1.906-4.796
			l0.746-0.721c1.413,1.49,2.191,3.452,2.191,5.519C29.523,13.559,28.748,15.516,27.338,17.003z"/>
	</g>
	<g>
		<path fill="#252628" d="M4.545,15.156c-0.92-0.999-1.425-2.301-1.425-3.666c0-1.352,0.494-2.643,1.396-3.634l0.761,0.706
			c-0.726,0.801-1.124,1.84-1.124,2.929c0,1.1,0.408,2.149,1.148,2.952L4.545,15.156z"/>
	</g>
	<g>
		<path fill="#252628" d="M1.716,17.003c-1.414-1.487-2.193-3.448-2.193-5.516c0-2.062,0.776-4.017,2.185-5.506l0.746,0.721
			c-1.225,1.292-1.898,2.992-1.898,4.785c0,1.796,0.678,3.5,1.906,4.796L1.716,17.003z"/>
	</g>
	<g>
		<rect x="8.441" y="4.391" fill="#252628" width="12.167" height="14.164"/>
	</g>
	<g>
		<rect x="8.441" y="20.645" fill="#252628" width="12.167" height="2.842"/>
	</g>
	<g>
		<rect x="8.441" y="-0.514" fill="#252628" width="12.167" height="2.843"/>
	</g>
</g>
</svg>
