<?xml version="1.0" encoding="utf-8"?>
<!-- Generator: Adobe Illustrator 16.0.0, SVG Export Plug-In . SVG Version: 6.00 Build 0)  -->
<!DOCTYPE svg PUBLIC "-//W3C//DTD SVG 1.1//EN" "http://www.w3.org/Graphics/SVG/1.1/DTD/svg11.dtd">
<svg version="1.1" id="Layer_1" xmlns="http://www.w3.org/2000/svg" xmlns:xlink="http://www.w3.org/1999/xlink" x="0px" y="0px"
	 width="24px" height="24px" viewBox="0 0 24 24" enable-background="new 0 0 24 24" xml:space="preserve">
<path fill="none" d="M116.189,6.486c-3,0-5.453,2.452-5.453,5.453c0,3,2.453,5.456,5.453,5.456c3.002,0,5.455-2.455,5.455-5.456
	C121.646,8.938,119.191,6.486,116.189,6.486z M116.189,15.576c-2.021,0-3.635-1.614-3.635-3.637c0-2.02,1.614-3.636,3.635-3.636
	c2.022,0,3.638,1.616,3.638,3.636C119.827,13.962,118.213,15.576,116.189,15.576z"/>
<g>
	<path fill="#2A2A2A" d="M11.94,9.031c-1.617,0-2.908,1.292-2.908,2.908c0,1.618,1.291,2.911,2.908,2.911
		c1.618,0,2.911-1.293,2.911-2.911C14.851,10.323,13.558,9.031,11.94,9.031z"/>
	<path fill="#2A2A2A" d="M15.236,3.94h-6.59c-2.583,0-4.705,2.119-4.705,4.705v6.591c0,2.584,2.117,4.703,4.705,4.703h6.59
		c2.583,0,4.705-2.119,4.705-4.703V8.645C19.941,6.063,17.821,3.94,15.236,3.94z M11.94,16.305c-2.4,0-4.362-1.967-4.362-4.366
		c0-2.4,1.962-4.362,4.362-4.362s4.365,1.961,4.365,4.362C16.307,14.338,14.34,16.305,11.94,16.305z M17.293,8.637
		c-0.549,0-0.986-0.443-0.986-0.993s0.438-0.989,0.986-0.989c0.551,0,0.993,0.439,0.993,0.989S17.844,8.637,17.293,8.637z"/>
</g>
</svg>
