<?xml version="1.0" encoding="iso-8859-1"?>
<!-- Generator: Adobe Illustrator 16.0.0, SVG Export Plug-In . SVG Version: 6.00 Build 0)  -->
<!DOCTYPE svg PUBLIC "-//W3C//DTD SVG 1.1//EN" "http://www.w3.org/Graphics/SVG/1.1/DTD/svg11.dtd">
<svg version="1.1" id="Layer_1" xmlns="http://www.w3.org/2000/svg" xmlns:xlink="http://www.w3.org/1999/xlink" x="0px" y="0px"
	 width="24.166px" height="24.166px" viewBox="0 0 24.166 24.166" style="enable-background:new 0 0 24.166 24.166;"
	 xml:space="preserve">
<path style="fill:#FFD662;" d="M21.45,17.979c-0.827,0.078-1.658,0.056-2.483,0.01c-0.396-0.021-0.694-0.271-0.954-0.553
	c-0.503-0.533-0.984-1.08-1.492-1.604c-0.408-0.423-0.856-0.796-1.354-1.114c-0.247-0.156-0.511-0.273-0.808-0.281
	c-0.399-0.004-0.569,0.146-0.582,0.551c-0.016,0.679-0.004,1.35-0.008,2.027c-0.008,0.674-0.199,0.879-0.875,0.943
	c-2.134,0.209-3.917-0.588-5.513-1.92c-1.471-1.229-2.448-2.846-3.395-4.467C3.198,10.222,2.53,8.81,2.16,7.279
	C2.141,7.19,2.118,7.105,2.106,7.018C2.011,6.357,2.202,6.14,2.867,6.139c0.676,0,1.349,0,2.024,0c0.63,0,0.816,0.114,1.039,0.718
	C6.242,7.71,6.572,8.553,6.972,9.369c0.486,0.984,1.024,1.937,1.721,2.792c0.19,0.231,0.411,0.432,0.675,0.58
	c0.322,0.18,0.573,0.057,0.622-0.308c0.045-0.342,0.023-0.683,0.023-1.027c0-0.806-0.013-1.614,0.019-2.422
	C10.06,8.319,9.891,7.69,9.443,7.162c-0.07-0.083-0.141-0.169-0.196-0.264c-0.2-0.356-0.024-0.736,0.385-0.744
	c1.216-0.019,2.433-0.008,3.651-0.008c0.217,0,0.339,0.131,0.409,0.327c0.076,0.204,0.076,0.411,0.076,0.621
	c-0.002,0.664-0.002,1.331,0,1.994c0,0.717-0.002,1.438,0,2.16c0,0.238,0.017,0.483,0.262,0.602
	c0.252,0.124,0.451-0.037,0.631-0.188c0.714-0.586,1.224-1.332,1.71-2.103c0.56-0.876,1.021-1.813,1.448-2.76
	c0.193-0.429,0.475-0.667,0.963-0.66c0.755,0.015,1.508-0.002,2.263,0.005c0.538,0.01,0.726,0.244,0.586,0.77
	c-0.239,0.874-0.739,1.629-1.202,2.393c-0.511,0.845-1.062,1.661-1.619,2.471c-0.465,0.671-0.44,0.874,0.146,1.454
	c0.904,0.886,1.753,1.814,2.506,2.828c0.227,0.308,0.439,0.616,0.561,0.979C22.194,17.58,22.013,17.922,21.45,17.979z"/>
</svg>
