<?xml version="1.0" encoding="iso-8859-1"?>
<!-- Generator: Adobe Illustrator 16.0.0, SVG Export Plug-In . SVG Version: 6.00 Build 0)  -->
<!DOCTYPE svg PUBLIC "-//W3C//DTD SVG 1.1//EN" "http://www.w3.org/Graphics/SVG/1.1/DTD/svg11.dtd">
<svg version="1.1" id="Layer_1" xmlns="http://www.w3.org/2000/svg" xmlns:xlink="http://www.w3.org/1999/xlink" x="0px" y="0px"
	 width="24.166px" height="24.166px" viewBox="0 0 24.166 24.166" style="enable-background:new 0 0 24.166 24.166;"
	 xml:space="preserve">
<path style="fill:#FFD662;" d="M12.083,2.668c-5.248,0-9.502,4.278-9.502,9.555c0,4.5,3.099,8.264,7.266,9.277
	c-0.003-0.845-0.008-2.095-0.01-2.601c-2.511,0.548-3.04-1.217-3.04-1.217c-0.41-1.05-1-1.328-1-1.328
	c-0.819-0.562,0.06-0.555,0.06-0.555c0.903,0.065,1.379,0.938,1.379,0.938c0.804,1.386,2.111,0.984,2.626,0.754
	c0.082-0.586,0.316-0.983,0.571-1.211c-2.001-0.229-4.107-1.004-4.107-4.482c0-0.991,0.353-1.801,0.927-2.438
	c-0.087-0.226-0.4-1.15,0.09-2.399c0,0,0.757-0.243,2.481,0.929c0.719-0.199,1.489-0.3,2.258-0.301c0.769,0,1.541,0.102,2.258,0.301
	c1.724-1.172,2.479-0.929,2.479-0.929c0.494,1.249,0.187,2.175,0.092,2.399c0.576,0.637,0.924,1.446,0.924,2.438
	c0,3.483-2.109,4.248-4.119,4.475c0.323,0.279,0.611,0.832,0.611,1.686s-0.006,2.527-0.008,3.544
	c4.164-1.021,7.261-4.774,7.261-9.276C21.587,6.943,17.334,2.668,12.083,2.668z"/>
</svg>
