<?xml version="1.0" encoding="iso-8859-1"?>
<!-- Generator: Adobe Illustrator 16.0.0, SVG Export Plug-In . SVG Version: 6.00 Build 0)  -->
<!DOCTYPE svg PUBLIC "-//W3C//DTD SVG 1.1//EN" "http://www.w3.org/Graphics/SVG/1.1/DTD/svg11.dtd">
<svg version="1.1" id="Layer_1" xmlns="http://www.w3.org/2000/svg" xmlns:xlink="http://www.w3.org/1999/xlink" x="0px" y="0px"
	 width="24px" height="24px" viewBox="0 0 24 24" style="enable-background:new 0 0 24 24;" xml:space="preserve">
<g>
	<path style="fill:#FFD662;" d="M11.938,9.029c-1.616,0-2.908,1.293-2.908,2.909c0,1.619,1.292,2.912,2.908,2.912
		c1.619,0,2.912-1.293,2.912-2.912C14.85,10.323,13.557,9.029,11.938,9.029z"/>
	<path style="fill:#FFD662;" d="M15.234,3.939h-6.59c-2.584,0-4.705,2.118-4.705,4.705v6.592c0,2.582,2.117,4.703,4.705,4.703h6.59
		c2.584,0,4.705-2.119,4.705-4.703V8.644C19.939,6.062,17.82,3.939,15.234,3.939z M11.938,16.305c-2.4,0-4.362-1.967-4.362-4.367
		s1.962-4.362,4.362-4.362c2.401,0,4.365,1.961,4.365,4.362C16.305,14.338,14.339,16.305,11.938,16.305z M17.292,8.637
		c-0.551,0-0.987-0.443-0.987-0.994c0-0.55,0.438-0.989,0.987-0.989s0.992,0.439,0.992,0.989
		C18.284,8.193,17.842,8.637,17.292,8.637z"/>
</g>
</svg>
