<?xml version="1.0" encoding="utf-8"?>
<!-- Generator: Adobe Illustrator 16.0.0, SVG Export Plug-In . SVG Version: 6.00 Build 0)  -->
<!DOCTYPE svg PUBLIC "-//W3C//DTD SVG 1.1//EN" "http://www.w3.org/Graphics/SVG/1.1/DTD/svg11.dtd">
<svg version="1.1" id="Layer_1" xmlns="http://www.w3.org/2000/svg" xmlns:xlink="http://www.w3.org/1999/xlink" x="0px" y="0px"
	 width="24.166px" height="24.166px" viewBox="0 0 24.166 24.166" enable-background="new 0 0 24.166 24.166" xml:space="preserve">
<path fill="#2A2A2A" d="M21.45,17.986c-0.827,0.078-1.658,0.057-2.483,0.008c-0.396-0.022-0.695-0.272-0.956-0.552
	c-0.499-0.535-0.983-1.084-1.491-1.608c-0.408-0.419-0.861-0.797-1.359-1.112c-0.245-0.159-0.507-0.278-0.805-0.286
	c-0.402-0.001-0.572,0.146-0.581,0.551c-0.014,0.678-0.005,1.35-0.008,2.03c-0.006,0.673-0.197,0.88-0.874,0.948
	c-2.134,0.21-3.921-0.589-5.512-1.923c-1.472-1.231-2.449-2.848-3.395-4.474C3.199,10.214,2.53,8.802,2.162,7.269
	C2.141,7.183,2.12,7.099,2.107,7.01C2.013,6.35,2.201,6.132,2.869,6.13c0.676,0,1.349,0,2.023,0c0.63,0,0.814,0.114,1.038,0.718
	c0.312,0.856,0.642,1.7,1.043,2.516c0.484,0.987,1.024,1.939,1.719,2.797c0.19,0.231,0.411,0.433,0.675,0.582
	c0.322,0.181,0.573,0.056,0.621-0.31c0.045-0.342,0.024-0.684,0.024-1.03c0-0.808-0.013-1.617,0.019-2.426
	c0.028-0.663-0.14-1.294-0.589-1.823C9.372,7.069,9.302,6.983,9.248,6.888C9.047,6.53,9.222,6.152,9.632,6.144
	c1.216-0.019,2.433-0.007,3.651-0.007c0.219,0,0.341,0.131,0.413,0.326c0.071,0.204,0.071,0.411,0.071,0.622
	c-0.001,0.664-0.001,1.331,0,1.996c0,0.719-0.001,1.44,0,2.163c0,0.236,0.018,0.483,0.263,0.603c0.252,0.123,0.45-0.039,0.631-0.188
	c0.71-0.586,1.224-1.334,1.708-2.104c0.561-0.877,1.023-1.816,1.447-2.764c0.194-0.429,0.477-0.668,0.966-0.662
	c0.753,0.015,1.506-0.002,2.258,0.005c0.538,0.008,0.729,0.245,0.586,0.77C21.39,7.778,20.891,8.534,20.428,9.3
	c-0.512,0.845-1.061,1.664-1.618,2.474c-0.464,0.672-0.446,0.877,0.144,1.455c0.904,0.884,1.754,1.816,2.505,2.833
	c0.227,0.303,0.44,0.617,0.562,0.977C22.195,17.588,22.012,17.93,21.45,17.986z"/>
</svg>
