<?xml version="1.0" encoding="utf-8"?>
<!-- Generator: Adobe Illustrator 16.0.0, SVG Export Plug-In . SVG Version: 6.00 Build 0)  -->
<!DOCTYPE svg PUBLIC "-//W3C//DTD SVG 1.1//EN" "http://www.w3.org/Graphics/SVG/1.1/DTD/svg11.dtd">
<svg version="1.1" id="Layer_1" xmlns="http://www.w3.org/2000/svg" xmlns:xlink="http://www.w3.org/1999/xlink" x="0px" y="0px"
	 width="140px" height="350px" viewBox="0 0 140 350" enable-background="new 0 0 140 350" xml:space="preserve">
<g>
	<circle fill="#C9BDA6" cx="-982.01" cy="274.128" r="8"/>
	<circle fill="#C9BDA6" cx="-1014.011" cy="274.128" r="8"/>
	<circle fill="#C9BDA6" cx="-950.01" cy="274.128" r="8"/>
</g>
<g>
	<circle fill="#C9BDA6" cx="-1044.078" cy="360.128" r="8"/>
</g>
<rect x="-1052.078" y="140.008" fill="#C9BDA6" width="140" height="32"/>
<rect x="-1052.078" y="323.44" fill="#C9BDA6" width="140" height="15.686"/>
<circle fill="#C9BDA6" cx="-1044.078" cy="-0.937" r="8"/>
<g>
	<rect x="-936.586" y="-5.938" fill="#C9BDA6" width="24" height="4"/>
	<rect x="-928.642" y="2.062" fill="#C9BDA6" width="16.056" height="2"/>
</g>
<rect x="-1023.53" y="33.999" fill="#C9BDA6" width="82.904" height="4"/>
<rect x="-1019.463" y="240.056" fill="#C9BDA6" width="74.904" height="4"/>
<rect x="-1015.163" y="41.999" fill="#C9BDA6" width="66.17" height="2"/>
<rect x="-1052.078" y="76.008" fill="#C9BDA6" width="48.818" height="32"/>
<g>
	<rect x="-987.093" y="76.008" fill="#C9BDA6" width="58.604" height="2"/>
	<rect x="-987.093" y="82.008" fill="#C9BDA6" width="58.604" height="2"/>
	<rect x="-987.093" y="88.008" fill="#C9BDA6" width="58.604" height="2"/>
	<rect x="-987.093" y="94.008" fill="#C9BDA6" width="58.604" height="2"/>
</g>
<g>
	<rect x="-987.093" y="100.008" fill="#C9BDA6" width="58.604" height="2"/>
	<rect x="-987.093" y="106.008" fill="#C9BDA6" width="58.604" height="2"/>
</g>
<g>
	<rect x="-973.922" y="188.001" fill="#C9BDA6" width="45.434" height="2"/>
	<rect x="-973.922" y="194.001" fill="#C9BDA6" width="45.434" height="2"/>
	<rect x="-973.922" y="200.001" fill="#C9BDA6" width="45.434" height="2"/>
	<rect x="-973.922" y="206.001" fill="#C9BDA6" width="45.434" height="2"/>
</g>
<g>
	<rect x="-1035.26" y="188.001" fill="#C9BDA6" width="45.434" height="2"/>
	<rect x="-1035.26" y="194.001" fill="#C9BDA6" width="45.434" height="2"/>
	<rect x="-1035.26" y="200.001" fill="#C9BDA6" width="45.434" height="2"/>
	<rect x="-1035.26" y="206.001" fill="#C9BDA6" width="45.434" height="2"/>
</g>
<rect x="-1004.728" y="248.126" fill="#C9BDA6" width="45.434" height="2"/>
<g>
	<rect x="-958.01" y="286.126" fill="#C9BDA6" width="16" height="2"/>
	<rect x="-958.01" y="292.126" fill="#C9BDA6" width="16" height="2"/>
</g>
<g>
	<rect x="-990.011" y="286.126" fill="#C9BDA6" width="16" height="2"/>
	<rect x="-990.011" y="292.126" fill="#C9BDA6" width="16" height="2"/>
</g>
<g>
	<rect x="-1022.011" y="286.126" fill="#C9BDA6" width="16" height="2"/>
	<rect x="-1022.011" y="292.126" fill="#C9BDA6" width="16" height="2"/>
</g>
<g>
	<rect x="-936.516" y="355.126" fill="#C9BDA6" width="24" height="4"/>
	<rect x="-928.571" y="363.126" fill="#C9BDA6" width="16.055" height="2"/>
</g>
<circle fill="none" stroke="#CCAC8B" stroke-width="12" stroke-miterlimit="10" cx="1626.979" cy="-135.459" r="29.249"/>
<circle fill="none" stroke="#CCAC8B" stroke-width="12" stroke-miterlimit="10" cx="1538.225" cy="-166.459" r="23.024"/>
<circle fill="none" stroke="#CCAC8B" stroke-width="12" stroke-miterlimit="10" cx="1587.843" cy="28.724" r="26.594"/>
<circle fill="none" stroke="#CCAC8B" stroke-width="12" stroke-miterlimit="10" cx="1698.169" cy="-41.476" r="27.189"/>
<circle fill="none" stroke="#CCAC8B" stroke-width="12" stroke-miterlimit="10" cx="1523.669" cy="-70.053" r="28.577"/>
<rect x="25.458" y="61.57" fill="#2A2A2A" width="24" height="8"/>
<rect x="73.717" y="101.823" fill="#2A2A2A" width="8" height="24"/>
<rect x="9.601" y="189.444" fill="#2A2A2A" width="23.999" height="8"/>
<rect x="65.623" y="301.466" fill="#2A2A2A" width="24" height="8"/>
<rect x="97.507" y="229.493" fill="#2A2A2A" width="8" height="24"/>
</svg>
