<?xml version="1.0" encoding="utf-8"?>
<!-- Generator: Adobe Illustrator 16.0.0, SVG Export Plug-In . SVG Version: 6.00 Build 0)  -->
<!DOCTYPE svg PUBLIC "-//W3C//DTD SVG 1.1//EN" "http://www.w3.org/Graphics/SVG/1.1/DTD/svg11.dtd">
<svg version="1.1" id="Layer_1" xmlns="http://www.w3.org/2000/svg" xmlns:xlink="http://www.w3.org/1999/xlink" x="0px" y="0px"
	 width="140px" height="350px" viewBox="0 0 140 350" enable-background="new 0 0 140 350" xml:space="preserve">
<g>
	<circle fill="#C9BDA6" cx="-982.01" cy="274.128" r="8"/>
	<circle fill="#C9BDA6" cx="-1014.011" cy="274.128" r="8"/>
	<circle fill="#C9BDA6" cx="-950.01" cy="274.128" r="8"/>
</g>
<g>
	<circle fill="#C9BDA6" cx="-1044.078" cy="360.128" r="8"/>
</g>
<rect x="-1052.078" y="140.008" fill="#C9BDA6" width="140" height="32"/>
<rect x="-1052.078" y="323.44" fill="#C9BDA6" width="140" height="15.686"/>
<circle fill="#C9BDA6" cx="-1044.078" cy="-0.937" r="8"/>
<g>
	<rect x="-936.586" y="-5.938" fill="#C9BDA6" width="24" height="4"/>
	<rect x="-928.642" y="2.062" fill="#C9BDA6" width="16.056" height="2"/>
</g>
<rect x="-1023.53" y="33.999" fill="#C9BDA6" width="82.904" height="4"/>
<rect x="-1019.463" y="240.056" fill="#C9BDA6" width="74.904" height="4"/>
<rect x="-1015.163" y="41.999" fill="#C9BDA6" width="66.17" height="2"/>
<rect x="-1052.078" y="76.008" fill="#C9BDA6" width="48.818" height="32"/>
<g>
	<rect x="-987.093" y="76.008" fill="#C9BDA6" width="58.604" height="2"/>
	<rect x="-987.093" y="82.008" fill="#C9BDA6" width="58.604" height="2"/>
	<rect x="-987.093" y="88.008" fill="#C9BDA6" width="58.604" height="2"/>
	<rect x="-987.093" y="94.008" fill="#C9BDA6" width="58.604" height="2"/>
</g>
<g>
	<rect x="-987.093" y="100.008" fill="#C9BDA6" width="58.604" height="2"/>
	<rect x="-987.093" y="106.008" fill="#C9BDA6" width="58.604" height="2"/>
</g>
<g>
	<rect x="-973.922" y="188.001" fill="#C9BDA6" width="45.434" height="2"/>
	<rect x="-973.922" y="194.001" fill="#C9BDA6" width="45.434" height="2"/>
	<rect x="-973.922" y="200.001" fill="#C9BDA6" width="45.434" height="2"/>
	<rect x="-973.922" y="206.001" fill="#C9BDA6" width="45.434" height="2"/>
</g>
<g>
	<rect x="-1035.26" y="188.001" fill="#C9BDA6" width="45.434" height="2"/>
	<rect x="-1035.26" y="194.001" fill="#C9BDA6" width="45.434" height="2"/>
	<rect x="-1035.26" y="200.001" fill="#C9BDA6" width="45.434" height="2"/>
	<rect x="-1035.26" y="206.001" fill="#C9BDA6" width="45.434" height="2"/>
</g>
<rect x="-1004.728" y="248.126" fill="#C9BDA6" width="45.434" height="2"/>
<g>
	<rect x="-958.01" y="286.126" fill="#C9BDA6" width="16" height="2"/>
	<rect x="-958.01" y="292.126" fill="#C9BDA6" width="16" height="2"/>
</g>
<g>
	<rect x="-990.011" y="286.126" fill="#C9BDA6" width="16" height="2"/>
	<rect x="-990.011" y="292.126" fill="#C9BDA6" width="16" height="2"/>
</g>
<g>
	<rect x="-1022.011" y="286.126" fill="#C9BDA6" width="16" height="2"/>
	<rect x="-1022.011" y="292.126" fill="#C9BDA6" width="16" height="2"/>
</g>
<g>
	<rect x="-936.516" y="355.126" fill="#C9BDA6" width="24" height="4"/>
	<rect x="-928.571" y="363.126" fill="#C9BDA6" width="16.055" height="2"/>
</g>
<circle fill="none" stroke="#CCAC8B" stroke-width="12" stroke-miterlimit="10" cx="1626.979" cy="-135.459" r="29.249"/>
<circle fill="none" stroke="#CCAC8B" stroke-width="12" stroke-miterlimit="10" cx="1538.225" cy="-166.459" r="23.024"/>
<circle fill="none" stroke="#CCAC8B" stroke-width="12" stroke-miterlimit="10" cx="1587.843" cy="28.724" r="26.594"/>
<circle fill="none" stroke="#CCAC8B" stroke-width="12" stroke-miterlimit="10" cx="1698.169" cy="-41.476" r="27.189"/>
<circle fill="none" stroke="#CCAC8B" stroke-width="12" stroke-miterlimit="10" cx="1523.669" cy="-70.053" r="28.577"/>
<line fill="none" stroke="#C9BDA6" stroke-width="8" stroke-miterlimit="10" x1="122.834" y1="117.835" x2="94.752" y2="128.757"/>
<line fill="none" stroke="#C9BDA6" stroke-width="8" stroke-miterlimit="10" x1="64.719" y1="145.918" x2="49.119" y2="173.55"/>
<line fill="none" stroke="#C9BDA6" stroke-width="8" stroke-miterlimit="10" x1="89.682" y1="201.694" x2="69.398" y2="181.022"/>
<line fill="none" stroke="#C9BDA6" stroke-width="8" stroke-miterlimit="10" x1="135.316" y1="189.212" x2="108.793" y2="206.374"/>
<g>
	<line fill="none" stroke="#C9BDA6" stroke-width="8" stroke-miterlimit="10" x1="125.104" y1="149.008" x2="98.972" y2="163.441"/>
	<line fill="none" stroke="#C9BDA6" stroke-width="8" stroke-miterlimit="10" x1="127.833" y1="170.46" x2="106.771" y2="150.958"/>
</g>
<g>
	<line fill="none" stroke="#C9BDA6" stroke-width="8" stroke-miterlimit="10" x1="127.639" y1="267.61" x2="103.846" y2="283.991"/>
	<line fill="none" stroke="#C9BDA6" stroke-width="8" stroke-miterlimit="10" x1="122.957" y1="283.991" x2="103.846" y2="263.71"/>
</g>
<line fill="none" stroke="#C9BDA6" stroke-width="8" stroke-miterlimit="10" x1="122.055" y1="298.384" x2="119.715" y2="330.366"/>
<line fill="none" stroke="#C9BDA6" stroke-width="8" stroke-miterlimit="10" x1="173.15" y1="316.366" x2="191.871" y2="292.964"/>
<line fill="none" stroke="#C9BDA6" stroke-width="8" stroke-miterlimit="10" x1="161.158" y1="230.753" x2="186.021" y2="248.888"/>
<line fill="none" stroke="#C9BDA6" stroke-width="8" stroke-miterlimit="10" x1="161.158" y1="199.353" x2="179.779" y2="224.706"/>
<line fill="none" stroke="#C9BDA6" stroke-width="8" stroke-miterlimit="10" x1="170.471" y1="126.806" x2="191.873" y2="145.918"/>
<line fill="none" stroke="#C9BDA6" stroke-width="8" stroke-miterlimit="10" x1="168.469" y1="87.023" x2="145.459" y2="70.64"/>
<line fill="none" stroke="#C9BDA6" stroke-width="8" stroke-miterlimit="10" x1="129.448" y1="80.782" x2="126.22" y2="50.359"/>
<line fill="none" stroke="#C9BDA6" stroke-width="8" stroke-miterlimit="10" x1="168.469" y1="12.916" x2="148.969" y2="36.707"/>
<line fill="none" stroke="#C9BDA6" stroke-width="8" stroke-miterlimit="10" x1="114.766" y1="19.351" x2="98.775" y2="45.484"/>
<line fill="none" stroke="#C9BDA6" stroke-width="8" stroke-miterlimit="10" x1="86.561" y1="47.239" x2="84.807" y2="17.595"/>
<line fill="none" stroke="#C9BDA6" stroke-width="8" stroke-miterlimit="10" x1="83.051" y1="65.57" x2="62.379" y2="45.288"/>
<line fill="none" stroke="#C9BDA6" stroke-width="8" stroke-miterlimit="10" x1="111.914" y1="69.08" x2="97.873" y2="97.164"/>
<line fill="none" stroke="#C9BDA6" stroke-width="8" stroke-miterlimit="10" x1="89.682" y1="248.888" x2="69.398" y2="273.851"/>
<line fill="none" stroke="#C9BDA6" stroke-width="8" stroke-miterlimit="10" x1="72.715" y1="253.177" x2="56.919" y2="228.995"/>
<line fill="none" stroke="#C9BDA6" stroke-width="8" stroke-miterlimit="10" x1="49.119" y1="213.784" x2="20.254" y2="221.976"/>
<line fill="none" stroke="#C9BDA6" stroke-width="8" stroke-miterlimit="10" x1="31.176" y1="230.753" x2="6.454" y2="248.888"/>
<line fill="none" stroke="#C9BDA6" stroke-width="8" stroke-miterlimit="10" x1="34.687" y1="283.991" x2="8.943" y2="265.659"/>
<line fill="none" stroke="#C9BDA6" stroke-width="8" stroke-miterlimit="10" x1="44.242" y1="303.495" x2="48.533" y2="335.087"/>
<line fill="none" stroke="#C9BDA6" stroke-width="8" stroke-miterlimit="10" x1="-67.237" y1="334.787" x2="-90.927" y2="350"/>
<g>
	<line fill="none" stroke="#C9BDA6" stroke-width="8" stroke-miterlimit="10" x1="-13.27" y1="301.739" x2="-44.582" y2="303.69"/>
	<line fill="none" stroke="#C9BDA6" stroke-width="8" stroke-miterlimit="10" x1="-30.822" y1="290.038" x2="-36.672" y2="319.29"/>
</g>
<line fill="none" stroke="#C9BDA6" stroke-width="8" stroke-miterlimit="10" x1="-16.408" y1="250.45" x2="-39.812" y2="273.851"/>
<line fill="none" stroke="#C9BDA6" stroke-width="8" stroke-miterlimit="10" x1="-13.679" y1="228.995" x2="-42.541" y2="226.657"/>
<g>
	<line fill="none" stroke="#C9BDA6" stroke-width="8" stroke-miterlimit="10" x1="36.637" y1="140.068" x2="6.994" y2="127.782"/>
	<line fill="none" stroke="#C9BDA6" stroke-width="8" stroke-miterlimit="10" x1="32.736" y1="121.541" x2="13.351" y2="145.724"/>
</g>
<line fill="none" stroke="#C9BDA6" stroke-width="8" stroke-miterlimit="10" x1="66.67" y1="88.972" x2="48.275" y2="112.375"/>
<line fill="none" stroke="#C9BDA6" stroke-width="8" stroke-miterlimit="10" x1="-67.237" y1="106.915" x2="-93.37" y2="117.835"/>
<line fill="none" stroke="#C9BDA6" stroke-width="8" stroke-miterlimit="10" x1="-7.047" y1="123.296" x2="-28.926" y2="143.968"/>
<line fill="none" stroke="#C9BDA6" stroke-width="8" stroke-miterlimit="10" x1="-45.467" y1="74.931" x2="-53.658" y2="105.355"/>
<line fill="none" stroke="#C9BDA6" stroke-width="8" stroke-miterlimit="10" x1="11.031" y1="53.673" x2="13.877" y2="19.74"/>
<line fill="none" stroke="#C9BDA6" stroke-width="8" stroke-miterlimit="10" x1="-26.655" y1="38.56" x2="-13.154" y2="11.062"/>
<line fill="none" stroke="#C9BDA6" stroke-width="8" stroke-miterlimit="10" x1="-49.74" y1="50.75" x2="-67.237" y2="25.981"/>
<g>
	
		<line fill="none" stroke="#C9BDA6" stroke-width="8" stroke-miterlimit="10" x1="-30.675" y1="187.067" x2="-58.488" y2="174.782"/>
	
		<line fill="none" stroke="#C9BDA6" stroke-width="8" stroke-miterlimit="10" x1="-44.057" y1="170.492" x2="-58.488" y2="197.403"/>
</g>
<rect x="25.458" y="61.57" fill="#2A2A2A" width="24" height="8"/>
<rect x="73.717" y="101.823" fill="#2A2A2A" width="8" height="24"/>
<rect x="9.601" y="189.444" fill="#2A2A2A" width="23.999" height="8"/>
<rect x="65.623" y="301.466" fill="#2A2A2A" width="24" height="8"/>
<rect x="97.507" y="229.493" fill="#2A2A2A" width="8" height="24"/>
</svg>
