<?xml version="1.0" encoding="utf-8"?>
<!-- Generator: Adobe Illustrator 16.0.0, SVG Export Plug-In . SVG Version: 6.00 Build 0)  -->
<!DOCTYPE svg PUBLIC "-//W3C//DTD SVG 1.1//EN" "http://www.w3.org/Graphics/SVG/1.1/DTD/svg11.dtd">
<svg version="1.1" id="Layer_1" xmlns="http://www.w3.org/2000/svg" xmlns:xlink="http://www.w3.org/1999/xlink" x="0px" y="0px"
	 width="24.166px" height="24.166px" viewBox="0 0 24.166 24.166" enable-background="new 0 0 24.166 24.166" xml:space="preserve">
<path fill="#D1B894" d="M21.638,18.097c-0.844,0.08-1.691,0.057-2.533,0.01c-0.404-0.023-0.709-0.277-0.975-0.563
	c-0.512-0.544-1.003-1.104-1.521-1.635c-0.416-0.431-0.877-0.812-1.385-1.136c-0.252-0.162-0.518-0.283-0.82-0.289
	c-0.412-0.004-0.584,0.147-0.594,0.561c-0.016,0.691-0.004,1.375-0.009,2.068c-0.007,0.687-0.202,0.897-0.891,0.964
	c-2.177,0.214-4-0.599-5.624-1.958c-1.5-1.254-2.497-2.9-3.463-4.556c-0.803-1.378-1.484-2.819-1.861-4.38
	c-0.02-0.09-0.043-0.177-0.055-0.266C1.81,6.243,2.004,6.021,2.683,6.02c0.689,0,1.376,0,2.065,0c0.642,0,0.832,0.116,1.059,0.732
	c0.318,0.87,0.655,1.73,1.063,2.562c0.496,1.004,1.045,1.975,1.755,2.848c0.194,0.236,0.419,0.44,0.689,0.591
	c0.328,0.184,0.584,0.059,0.634-0.314c0.046-0.349,0.024-0.697,0.024-1.048c0-0.822-0.013-1.646,0.019-2.47
	c0.029-0.678-0.144-1.32-0.601-1.859c-0.071-0.085-0.144-0.173-0.2-0.269C8.986,6.429,9.165,6.042,9.583,6.034
	c1.24-0.019,2.481-0.008,3.725-0.008c0.221,0,0.346,0.133,0.418,0.333c0.078,0.208,0.078,0.419,0.078,0.633
	c-0.003,0.677-0.003,1.357,0,2.034c0,0.732-0.003,1.467,0,2.203c0,0.242,0.016,0.492,0.266,0.614
	c0.256,0.126,0.461-0.038,0.643-0.191c0.727-0.598,1.248-1.359,1.744-2.145c0.57-0.894,1.041-1.85,1.477-2.815
	c0.197-0.438,0.484-0.681,0.982-0.673c0.77,0.015,1.538-0.003,2.307,0.005c0.549,0.01,0.74,0.249,0.598,0.785
	C21.576,7.7,21.067,8.471,20.595,9.25c-0.521,0.862-1.082,1.694-1.65,2.52c-0.475,0.685-0.454,0.892,0.147,1.482
	c0.923,0.901,1.788,1.853,2.556,2.886c0.23,0.31,0.449,0.629,0.57,0.998C22.397,17.69,22.211,18.038,21.638,18.097z"/>
</svg>
