<?xml version="1.0" encoding="utf-8"?>
<!-- Generator: Adobe Illustrator 16.0.0, SVG Export Plug-In . SVG Version: 6.00 Build 0)  -->
<!DOCTYPE svg PUBLIC "-//W3C//DTD SVG 1.1//EN" "http://www.w3.org/Graphics/SVG/1.1/DTD/svg11.dtd">
<svg version="1.1" id="Layer_1" xmlns="http://www.w3.org/2000/svg" xmlns:xlink="http://www.w3.org/1999/xlink" x="0px" y="0px"
	 width="24.166px" height="24.166px" viewBox="0 0 24.166 24.166" enable-background="new 0 0 24.166 24.166" xml:space="preserve">
<path fill="#2A2A2A" d="M12.083,1.083c-6.131,0-11.1,4.997-11.1,11.162c0,5.258,3.62,9.658,8.488,10.835
	c-0.003-0.979-0.009-2.443-0.011-3.034c-2.932,0.639-3.55-1.423-3.55-1.423c-0.479-1.222-1.168-1.55-1.168-1.55
	c-0.959-0.657,0.07-0.642,0.07-0.642c1.056,0.075,1.612,1.089,1.612,1.089c0.94,1.622,2.466,1.154,3.067,0.881
	c0.096-0.683,0.37-1.148,0.667-1.413c-2.337-0.268-4.797-1.176-4.797-5.238c0-1.158,0.412-2.104,1.083-2.847
	C6.34,8.64,5.976,7.559,6.547,6.099c0,0,0.886-0.283,2.898,1.087c0.839-0.235,1.741-0.352,2.638-0.354
	c0.897,0.002,1.799,0.119,2.637,0.354c2.016-1.371,2.897-1.087,2.897-1.087c0.576,1.459,0.217,2.541,0.106,2.804
	c0.674,0.744,1.08,1.689,1.08,2.848c0,4.067-2.465,4.964-4.81,5.229c0.378,0.325,0.714,0.973,0.714,1.962
	c0,1.002-0.007,2.962-0.009,4.14c4.866-1.181,8.483-5.578,8.483-10.835C23.184,6.078,18.216,1.083,12.083,1.083z"/>
</svg>
