<?xml version="1.0" encoding="utf-8"?>
<!-- Generator: Adobe Illustrator 16.0.0, SVG Export Plug-In . SVG Version: 6.00 Build 0)  -->
<!DOCTYPE svg PUBLIC "-//W3C//DTD SVG 1.1//EN" "http://www.w3.org/Graphics/SVG/1.1/DTD/svg11.dtd">
<svg version="1.1" id="Layer_1" xmlns="http://www.w3.org/2000/svg" xmlns:xlink="http://www.w3.org/1999/xlink" x="0px" y="0px"
	 width="24.166px" height="24.166px" viewBox="0 0 24.166 24.166" enable-background="new 0 0 24.166 24.166" xml:space="preserve">
<path fill="#2A2A2A" d="M21.638,18.105c-0.844,0.08-1.692,0.057-2.534,0.008c-0.403-0.023-0.708-0.278-0.975-0.563
	c-0.509-0.546-1.003-1.106-1.521-1.641c-0.416-0.428-0.878-0.812-1.386-1.134c-0.251-0.162-0.517-0.285-0.821-0.292
	c-0.411-0.002-0.583,0.148-0.593,0.562c-0.014,0.691-0.005,1.376-0.008,2.07c-0.006,0.687-0.201,0.898-0.891,0.968
	c-2.177,0.214-4-0.602-5.623-1.962c-1.501-1.256-2.498-2.904-3.463-4.563c-0.802-1.381-1.484-2.821-1.86-4.385
	C1.942,7.085,1.92,6.999,1.907,6.908C1.811,6.235,2.003,6.013,2.684,6.011c0.69,0,1.376,0,2.064,0c0.643,0,0.831,0.116,1.059,0.732
	C6.125,7.616,6.462,8.477,6.871,9.31c0.494,1.007,1.045,1.978,1.754,2.853c0.194,0.236,0.419,0.442,0.689,0.594
	c0.328,0.183,0.584,0.056,0.633-0.317c0.046-0.349,0.025-0.698,0.025-1.05C9.972,10.566,9.959,9.74,9.991,8.915
	c0.029-0.676-0.143-1.32-0.601-1.859C9.318,6.969,9.246,6.881,9.191,6.784C8.986,6.419,9.165,6.033,9.583,6.025
	c1.24-0.019,2.482-0.008,3.725-0.008c0.222,0,0.348,0.134,0.419,0.333c0.075,0.208,0.075,0.419,0.075,0.634
	c-0.002,0.677-0.002,1.358,0,2.036c0,0.733-0.002,1.469,0,2.206c0,0.241,0.017,0.493,0.267,0.615
	c0.256,0.125,0.46-0.039,0.644-0.192c0.724-0.597,1.248-1.361,1.742-2.147c0.571-0.895,1.044-1.852,1.476-2.819
	c0.199-0.438,0.486-0.681,0.985-0.675c0.768,0.015,1.536-0.002,2.304,0.005c0.548,0.008,0.743,0.25,0.598,0.786
	c-0.242,0.893-0.751,1.664-1.224,2.445c-0.521,0.862-1.082,1.697-1.65,2.523c-0.474,0.686-0.455,0.895,0.147,1.484
	c0.922,0.903,1.789,1.854,2.555,2.891c0.231,0.308,0.449,0.629,0.573,0.996C22.398,17.698,22.21,18.047,21.638,18.105z"/>
</svg>
