<?xml version="1.0" encoding="utf-8"?>
<!-- Generator: Adobe Illustrator 16.0.0, SVG Export Plug-In . SVG Version: 6.00 Build 0)  -->
<!DOCTYPE svg PUBLIC "-//W3C//DTD SVG 1.1//EN" "http://www.w3.org/Graphics/SVG/1.1/DTD/svg11.dtd">
<svg version="1.1" id="Layer_1" xmlns="http://www.w3.org/2000/svg" xmlns:xlink="http://www.w3.org/1999/xlink" x="0px" y="0px"
	 width="24.166px" height="24.166px" viewBox="0 0 24.166 24.166" enable-background="new 0 0 24.166 24.166" xml:space="preserve">
<path fill="#D1B894" d="M12.083,1.084c-6.131,0-11.1,4.998-11.1,11.162c0,5.257,3.62,9.655,8.488,10.836
	c-0.003-0.985-0.009-2.444-0.011-3.036c-2.934,0.641-3.55-1.42-3.55-1.42c-0.48-1.225-1.169-1.553-1.169-1.553
	c-0.958-0.654,0.07-0.645,0.07-0.645c1.056,0.078,1.612,1.092,1.612,1.092c0.94,1.619,2.465,1.152,3.067,0.879
	c0.096-0.682,0.37-1.148,0.667-1.414C7.82,16.72,5.36,15.813,5.36,11.75c0-1.158,0.412-2.104,1.083-2.847
	C6.34,8.639,5.976,7.559,6.547,6.1c0,0,0.885-0.283,2.899,1.085c0.839-0.233,1.739-0.35,2.637-0.353
	c0.896,0.002,1.8,0.12,2.639,0.353C16.735,5.816,17.616,6.1,17.616,6.1c0.578,1.459,0.218,2.54,0.107,2.804
	c0.674,0.743,1.08,1.688,1.08,2.847c0,4.068-2.465,4.964-4.812,5.229c0.38,0.326,0.715,0.971,0.715,1.963
	c0,1.002-0.006,2.959-0.008,4.139c4.864-1.184,8.481-5.579,8.481-10.835C23.185,6.079,18.217,1.084,12.083,1.084z"/>
</svg>
