<?xml version="1.0" encoding="utf-8"?>
<!-- Generator: Adobe Illustrator 16.0.0, SVG Export Plug-In . SVG Version: 6.00 Build 0)  -->
<!DOCTYPE svg PUBLIC "-//W3C//DTD SVG 1.1//EN" "http://www.w3.org/Graphics/SVG/1.1/DTD/svg11.dtd">
<svg version="1.1" id="Layer_1" xmlns="http://www.w3.org/2000/svg" xmlns:xlink="http://www.w3.org/1999/xlink" x="0px" y="0px"
	 width="24px" height="24px" viewBox="0 0 24 24" enable-background="new 0 0 24 24" xml:space="preserve">
<g>
	<path fill="#D1B894" d="M11.938,8.302c-2.021,0-3.635,1.616-3.635,3.636c0,2.023,1.614,3.638,3.635,3.638
		c2.022,0,3.637-1.615,3.637-3.638C15.575,9.918,13.961,8.302,11.938,8.302z"/>
	<path fill="#D1B894" d="M16.059,1.939H7.82c-3.229,0-5.881,2.648-5.881,5.881v8.241c0,3.229,2.647,5.879,5.881,5.879h8.239
		c3.228,0,5.881-2.648,5.881-5.879V7.82C21.939,4.592,19.291,1.939,16.059,1.939z M11.938,17.395c-3,0-5.453-2.455-5.453-5.457
		c0-3,2.453-5.453,5.453-5.453c3.001,0,5.455,2.452,5.455,5.453C17.395,14.939,14.939,17.395,11.938,17.395z M18.63,7.811
		c-0.688,0-1.235-0.554-1.235-1.241c0-0.688,0.549-1.237,1.235-1.237c0.688,0,1.24,0.549,1.24,1.237
		C19.87,7.256,19.318,7.811,18.63,7.811z"/>
</g>
</svg>
