<?xml version="1.0" encoding="utf-8"?>
<!-- Generator: Adobe Illustrator 16.0.0, SVG Export Plug-In . SVG Version: 6.00 Build 0)  -->
<!DOCTYPE svg PUBLIC "-//W3C//DTD SVG 1.1//EN" "http://www.w3.org/Graphics/SVG/1.1/DTD/svg11.dtd">
<svg version="1.1" id="Layer_1" xmlns="http://www.w3.org/2000/svg" xmlns:xlink="http://www.w3.org/1999/xlink" x="0px" y="0px"
	 width="24px" height="24px" viewBox="0 0 24 24" enable-background="new 0 0 24 24" xml:space="preserve">
<path fill="none" d="M116.19,6.486c-3,0-5.453,2.452-5.453,5.453c0,3,2.453,5.456,5.453,5.456c3.002,0,5.455-2.455,5.455-5.456
	C121.646,8.938,119.192,6.486,116.19,6.486z M116.19,15.576c-2.021,0-3.635-1.614-3.635-3.637c0-2.02,1.614-3.636,3.635-3.636
	c2.022,0,3.637,1.616,3.637,3.636C119.827,13.962,118.213,15.576,116.19,15.576z"/>
<g>
	<path fill="#2A2A2A" d="M11.94,8.303c-2.021,0-3.635,1.616-3.635,3.636c0,2.023,1.614,3.637,3.635,3.637
		c2.022,0,3.637-1.614,3.637-3.637C15.577,9.919,13.963,8.303,11.94,8.303z"/>
	<path fill="#2A2A2A" d="M16.061,1.94H7.822c-3.229,0-5.881,2.648-5.881,5.881v8.24c0,3.229,2.647,5.879,5.881,5.879h8.238
		c3.228,0,5.881-2.648,5.881-5.879v-8.24C21.941,4.593,19.293,1.94,16.061,1.94z M11.94,17.395c-3,0-5.453-2.455-5.453-5.456
		c0-3.001,2.453-5.453,5.453-5.453c3.002,0,5.455,2.452,5.455,5.453C17.396,14.939,14.942,17.395,11.94,17.395z M18.632,7.811
		c-0.688,0-1.236-0.554-1.236-1.241c0-0.688,0.549-1.237,1.236-1.237c0.688,0,1.24,0.549,1.24,1.237
		C19.872,7.257,19.32,7.811,18.632,7.811z"/>
</g>
</svg>
